<svg version="1.1" viewBox="-20.5 -12 41.5 13" xmlns="http://www.w3.org/2000/svg">
 <path d="m-0.5-8 6.5 7h1.1" fill="none" stroke="#f44336"/>
 <path d="m7-8h4.1" fill="none" stroke="#f44336"/>
 <g fill="#455a64" aria-label="R">
  <path d="m4.2508-9.8516h2.7031q0.82812 0 1.2656 0.35156 0.55469 0.39844 0.57031 1.2891 0 0.74219-0.47656 1.25-0.48438 0.54688-1.4531 0.5625h-2.6094zm-1.7266 9.8516h1.7266v-4.8672h2.2031l2.3516 4.8672h2.0547l-2.6406-5.0547q2.1719-0.83594 2.2031-3.1562-0.04687-1.5781-1.1328-2.4297-0.89844-0.75-2.3203-0.75h-4.4453z"/>
 </g>
 <g fill="none" stroke="#f44336">
  <path d="m1-8h6.1"/>
  <path d="m7-1h4l6.5-7"/>
  <path d="m15-8h4.1"/>
 </g>
 <g fill="#455a64" aria-label="P">
  <path d="m14.008-9.7578h2.4922q0.70312-0.015625 1.2344 0.32031 0.35156 0.20312 0.54688 0.55469 0.1875 0.39062 0.1875 0.96094 0 0.6875-0.46094 1.25-0.48438 0.57812-1.4453 0.59375h-2.5547zm-1.7266 9.7578h1.7266v-4.4453h2.625q1.7578-0.03125 2.6719-1.125 0.89062-1.0391 0.89062-2.3047 0-0.9375-0.35156-1.625-0.33594-0.71094-0.875-1.0938-0.64062-0.50781-1.2656-0.67188-0.625-0.125-1.2969-0.125h-4.125z"/>
 </g>
 <path d="m11-8h5.1" fill="none" stroke="#f44336"/>
 <path d="m-4-8h7" fill="none" stroke="#f44336"/>
 <g fill="#455a64" aria-label="O">
  <path d="m-7.6164-5.6953q0 1.9531 0.11719 2.6406 0.0625 0.36719 0.15625 0.60938 0.10156 0.23438 0.22656 0.49219 0.41406 0.78906 1.3281 1.3906 0.89844 0.625 2.2422 0.65625 1.3594-0.03125 2.2656-0.65625 0.89844-0.60156 1.2969-1.3906 0.28906-0.41406 0.39844-1.1016 0.10156-0.6875 0.10156-2.6406 0-1.9844-0.10156-2.6562-0.10938-0.67188-0.39844-1.0859-0.39844-0.78906-1.2969-1.4062-0.90625-0.625-2.2656-0.64062-1.3438 0.01563-2.2422 0.64062-0.91406 0.61719-1.3281 1.4062-0.25781 0.41406-0.38281 1.0859-0.11719 0.67188-0.11719 2.6562zm1.7344 0q0-1.6797 0.125-2.2891 0.10938-0.57812 0.44531-0.94531 0.27344-0.35156 0.71875-0.58594 0.4375-0.22656 1.0469-0.24219 0.61719 0.015625 1.0703 0.24219 0.42969 0.23438 0.6875 0.58594 0.33594 0.36719 0.46094 0.94531 0.11719 0.60938 0.11719 2.2891t-0.11719 2.2734q-0.125 0.59375-0.46094 0.96094-0.25781 0.35156-0.6875 0.57031-0.45312 0.25781-1.0703 0.25781-0.60938 0-1.0469-0.25781-0.44531-0.21875-0.71875-0.57031-0.33594-0.36719-0.44531-0.96094-0.125-0.59375-0.125-2.2734z"/>
 </g>
 <path d="m-11-8h7.1" fill="none" stroke="#f44336"/>
 <g fill="#455a64" aria-label="M">
  <path d="m-19.359 0h1.7266v-7.1016h0.03125l2.3828 5.4688h1.4375l2.3828-5.4688h0.03906v7.1016h1.7266v-11.391h-1.6328l-3.2031 7.4219-3.2656-7.4219h-1.625z"/>
 </g>
</svg>
